#!OML:ASF E:\CV Data\Top Level 1\Subject 1\Session 1\player.ASF
:FULLY-SPECIFIED
:DEGREES
1087
root 2.74119 16.8209 3.67415 21.8004 24.2726 -0.355167
lowerback 18.9423 10.3322 14.2848
upperback 1.07318 17.6387 9.81964
thorax -8.25718 8.06271 -1.22554
lowerneck -0.999813 -18.6563 -16.0288
upperneck -21.8571 -23.1872 18.9727
head -2.16108 -11.6816 7.80073
rclavicle 1.01778e-013 2.22639e-014
rhumerus 53.014 424.57 290.645
rradius 30.9026
rwrist -8.45994
rhand -26.2763 -5.73106
rfingers 7.12502
rthumb 0.278885 -35.7106
lclavicle 1.01778e-013 2.22639e-014
lhumerus -41.7556 -15.6846 87.9255
lradius 86.0503
lwrist -12.8353
lhand -22.78 -5.06373
lfingers 7.12502
lthumb 3.65554 24.8847
rfemur 5.78757 -16.6327 24.043
rtibia 52.8571
rfoot 6.81514 -10.3565
rtoes -0.142389
lfemur -53.2738 -3.93457 -31.2145
ltibia 31.7867
lfoot 3.8061 -24.6141
ltoes 20.0518
1088
root 2.68625 16.8568 3.75739 22.058 25.3552 -0.455797
lowerback 18.7182 10.3555 14.2034
upperback 1.0914 17.6099 9.80328
thorax -8.13344 8.06998 -1.15322
lowerneck -0.51218 -18.8038 -15.8431
upperneck -22.5938 -23.317 19.6357
head -2.34848 -11.8198 8.04656
rclavicle -3.49861e-014 -2.54444e-014
rhumerus 58.2955 428.134 297.018
rradius 33.4626
rwrist -10.3917
rhand -25.3533 -5.06626
rfingers 7.12502
rthumb 1.17037 -35.0428
lclavicle -3.49861e-014 -2.54444e-014
lhumerus -41.7831 -14.0123 87.0884
lradius 86.2305
lwrist -15.4239
lhand -23.1081 -4.54252
lfingers 7.12502
lthumb 3.3387 25.4111
rfemur 6.032 -17.1021 23.7958
rtibia 52.4614
rfoot 7.08008 -10.1579
rtoes -0.340043
lfemur -53.1555 -4.13979 -30.883
ltibia 31.4969
lfoot 3.79377 -25.2377
ltoes 20.4754
1089
root 2.63419 16.892 3.83955 22.2733 26.3799 -0.584344
lowerback 18.543 10.3407 14.1584
upperback 1.09415 17.5444 9.73947
thorax -8.03023 8.05346 -1.15023
lowerneck -0.0257177 -18.9353 -15.6672
upperneck -23.2509 -23.4194 20.3199
head -2.5107 -11.9494 8.29827
rclavicle -1.03368e-013 3.18055e-015
rhumerus 64.4629 431.181 304.154
rradius 36.1738
rwrist -11.5561
rhand -24.7034 -4.21283
rfingers 7.12502
rthumb 1.798 -34.185
lclavicle -1.03368e-013 3.18055e-015
lhumerus -41.903 -12.243 86.2001
lradius 86.4408
lwrist -17.6472
lhand -23.3732 -4.03371
lfingers 7.12502
lthumb 3.0827 25.9238
rfemur 6.26553 -17.4598 23.5074
rtibia 52.1236
rfoot 7.41801 -9.96937
rtoes -0.814289
lfemur -53.0363 -4.28539 -30.5424
ltibia 31.2332
lfoot 3.7932 -25.8611
ltoes 20.9479
1090
root 2.58515 16.9263 3.92038 22.4482 27.313 -0.748358
lowerback 18.3953 10.3111 14.1292
upperback 1.0975 17.4627 9.64209
thorax -7.92655 8.02677 -1.19089
lowerneck 0.431202 -19.0602 -15.5117
upperneck -23.8073 -23.5117 20.9899
head -2.6392 -12.0744 8.5404
rclavicle 9.54166e-014 3.49861e-014
rhumerus 71.7239 433.728 312.284
rradius 38.9552
rwrist -12.138
rhand -24.2434 -3.13439
rfingers 7.12502
rthumb 2.24232 -33.1024
lclavicle 9.54166e-014 3.49861e-014
lhumerus -42.0951 -10.4482 85.3104
lradius 86.6943
lwrist -19.2475
lhand -23.5759 -3.45718
lfingers 7.12502
lthumb 2.88693 26.503
rfemur 6.46907 -17.6639 23.1824
rtibia 51.8486
rfoot 7.81201 -9.77751
rtoes -1.35444
lfemur -52.9292 -4.37707 -30.1754
ltibia 31.002
lfoot 3.78974 -26.4426
ltoes 21.4148
1091
root 2.53883 16.9598 3.99966 22.5832 28.1406 -0.94955
lowerback 18.2718 10.2779 14.1045
upperback 1.10566 17.3765 9.51761
thorax -7.82064 7.9965 -1.26457
lowerneck 0.840413 -19.184 -15.3824
upperneck -24.2474 -23.6067 21.6219
head -2.72785 -12.1975 8.76157
rclavicle -5.24792e-014 -2.8625e-014
rhumerus 80.2823 435.785 321.637
rradius 41.7743
rwrist -12.382
rhand -23.9267 -1.80951
rfingers 7.12502
rthumb 2.54818 -31.774
lclavicle -5.24792e-014 -2.8625e-014
lhumerus -42.3451 -8.6792 84.4442
lradius 86.9649
lwrist -20.0861
lhand -23.7932 -2.90615
lfingers 7.12502
lthumb 2.67706 27.0568
rfemur 6.63141 -17.6933 22.8277
rtibia 51.6389
rfoot 8.27087 -9.56664
rtoes -1.92157
lfemur -52.8387 -4.43396 -29.7663
ltibia 30.8056
lfoot 3.76306 -26.9503
ltoes 21.793
1092
root 2.49449 16.9923 4.07709 22.6822 28.8602 -1.18272
lowerback 18.1801 10.2476 14.0706
upperback 1.11552 17.2946 9.37036
thorax -7.72485 7.96642 -1.36429
lowerneck 1.20061 -19.3078 -15.2903
upperneck -24.5732 -23.7102 22.2072
head -2.77615 -12.3189 8.95902
rclavicle -1.28812e-013 -3.18055e-015
rhumerus 90.0651 437.356 332.164
rradius 44.6052
rwrist -12.4453
rhand -23.5976 -0.233398
rfingers 7.12502
rthumb 2.86598 -30.1939
lclavicle -1.28812e-013 -3.18055e-015
lhumerus -42.6428 -6.98704 83.6298
lradius 87.2523
lwrist -20.0634
lhand -24.0647 -2.33763
lfingers 7.12502
lthumb 2.41491 27.6284
rfemur 6.74029 -17.5443 22.4513
rtibia 51.4946
rfoot 8.79031 -9.32199
rtoes -2.39869
lfemur -52.7648 -4.47418 -29.3081
ltibia 30.641
lfoot 3.70187 -27.3626
ltoes 22.0478
1093
root 2.45165 17.024 4.15261 22.7512 29.4864 -1.43886
lowerback 18.115 10.2094 14.0158
upperback 1.11942 17.202 9.20123
thorax -7.65023 7.92904 -1.48132
lowerneck 1.54025 -19.415 -15.2281
upperneck -24.8093 -23.8021 22.7535
head -2.79859 -12.4297 9.1415
rclavicle -7.15625e-014 5.40694e-014
rhumerus 100.651 438.498 343.436
rradius 47.4283
rwrist -12.3333
rhand -23.1837 1.60749
rfingers 7.12502
rthumb 3.26571 -28.3472
lclavicle -7.15625e-014 5.40694e-014
lhumerus -42.9926 -5.38215 82.859
lradius 87.5599
lwrist -19.1991
lhand -24.3944 -1.66758
lfingers 7.12502
lthumb 2.09642 28.3019
rfemur 6.78627 -17.2354 22.0585
rtibia 51.4114
rfoot 9.36428 -9.03002
rtoes -2.71762
lfemur -52.7034 -4.51753 -28.8031
ltibia 30.5025
lfoot 3.60422 -27.6665
ltoes 22.1679
1094
root 2.40969 17.0548 4.22597 22.797 30.0354 -1.70234
lowerback 18.072 10.1619 13.9282
upperback 1.11989 17.0938 9.01553
thorax -7.59698 7.88284 -1.60293
lowerneck 1.8619 -19.5038 -15.1985
upperneck -24.9764 -23.8794 23.2646
head -2.80138 -12.5281 9.31252
rclavicle 9.70069e-014 6.36111e-015
rhumerus 111.494 439.278 354.943
rradius 50.2297
rwrist -11.9748
rhand -22.5487 3.65429
rfingers 7.12502
rthumb 3.87893 -26.2901
lclavicle 9.70069e-014 6.36111e-015
lhumerus -43.3675 -3.86584 82.1334
lradius 87.8526
lwrist -17.6355
lhand -24.8527 -0.878408
lfingers 7.12502
lthumb 1.65383 29.0949
rfemur 6.77121 -16.7927 21.6479
rtibia 51.3821
rfoot 9.97527 -8.67871
rtoes -2.82864
lfemur -52.6479 -4.58446 -28.2593
ltibia 30.3844
lfoot 3.47447 -27.8561
ltoes 22.165
1095
root 2.3679 17.0845 4.29697 22.8195 30.5301 -1.96662
lowerback 18.0444 10.1064 13.8045
upperback 1.12133 16.9705 8.82317
thorax -7.56073 7.82915 -1.7158
lowerneck 2.18235 -19.5758 -15.2006
upperneck -25.1086 -23.9433 23.7494
head -2.79576 -12.616 9.4792
rclavicle -1.43125e-014 9.54166e-015
rhumerus 122.027 439.78 366.165
rradius 52.982
rwrist -11.2554
rhand -21.646 5.84495
rfingers 7.12502
rthumb 4.75062 -24.0818
lclavicle -1.43125e-014 9.54166e-015
lhumerus -43.7406 -2.44122 81.4579
lradius 88.1009
lwrist -15.548
lhand -25.4162 -0.0416966
lfingers 7.12502
lthumb 1.10955 29.9352
rfemur 6.70327 -16.2451 21.229
rtibia 51.3963
rfoot 10.5766 -8.28156
rtoes -2.77092
lfemur -52.5914 -4.68611 -27.6806
ltibia 30.2827
lfoot 3.31706 -27.9436
ltoes 22.0464
1096
root 2.32606 17.1131 4.36602 22.8255 30.9737 -2.23091
lowerback 18.0265 10.0475 13.6422
upperback 1.12133 16.8371 8.62575
thorax -7.54181 7.77046 -1.81693
lowerneck 2.48769 -19.6355 -15.2297
upperneck -25.2048 -23.9992 24.2025
head -2.78004 -12.6949 9.637
rclavicle -8.42847e-014 -2.22639e-014
rhumerus 131.89 440.105 376.768
rradius 55.6515
rwrist -10.0937
rhand -20.6083 8.23568
rfingers 7.12502
rthumb 5.75251 -21.6662
lclavicle -8.42847e-014 -2.22639e-014
lhumerus -44.0965 -1.10636 80.8281
lradius 88.2742
lwrist -13.129
lhand -25.9915 0.875074
lfingers 7.12502
lthumb 0.553969 30.8541
rfemur 6.58294 -15.6044 20.8077
rtibia 51.4449
rfoot 11.1179 -7.86267
rtoes -2.5252
lfemur -52.5385 -4.80331 -27.0808
ltibia 30.1945
lfoot 3.14524 -27.949
ltoes 21.8705
